<svg width="32" height="32" viewBox="0 0 32 32" fill="none" xmlns="http://www.w3.org/2000/svg">
<path fill-rule="evenodd" clip-rule="evenodd" d="M26.4653 21.8613C27.4387 20.128 28 18.1307 28 16C28 9.372 22.628 4 16 4C9.372 4 4 9.372 4 16C4 22.628 9.372 28 16 28C18.1307 28 20.128 27.4387 21.8613 26.4653L28 28L26.4653 21.8613Z" stroke="#F7F7F7" stroke-width="2.1176" stroke-linecap="round" stroke-linejoin="round"/>
<path d="M15.7642 16.4307C15.8948 16.3 16.1055 16.3 16.2362 16.4307C16.3668 16.5613 16.3668 16.772 16.2362 16.9027C16.1055 17.0333 15.8948 17.0333 15.7642 16.9027C15.6348 16.772 15.6348 16.5613 15.7642 16.4307" stroke="#F7F7F7" stroke-width="2" stroke-linecap="round" stroke-linejoin="round"/>
<path d="M10.4309 16.4307C10.5616 16.3 10.7722 16.3 10.9029 16.4307C11.0336 16.5613 11.0336 16.772 10.9029 16.9027C10.7722 17.0333 10.5616 17.0333 10.4309 16.9027C10.3016 16.772 10.3016 16.5613 10.4309 16.4307" stroke="#F7F7F7" stroke-width="2" stroke-linecap="round" stroke-linejoin="round"/>
<path d="M21.0974 16.4307C21.2281 16.3 21.4387 16.3 21.5694 16.4307C21.7001 16.5613 21.7001 16.772 21.5694 16.9027C21.4387 17.0333 21.2281 17.0333 21.0974 16.9027C20.9681 16.772 20.9681 16.5613 21.0974 16.4307" stroke="#F7F7F7" stroke-width="2" stroke-linecap="round" stroke-linejoin="round"/>
</svg>
