<svg width="200" height="52" viewBox="0 0 200 52" fill="none" xmlns="http://www.w3.org/2000/svg">
<path d="M0 36.9895L0.720288 18.4853C0.720288 11.5476 44.7659 5 100 5C155.234 5 199.316 11.4422 199.316 18.3799L200 36.0933C200 36.0933 157.107 22.9137 100 23.483C32.9172 24.1578 0 37 0 37V36.9895Z" fill="url(#paint0_linear_144_1100)"/>
<path d="M0.155762 36.6907L0.863196 15.8514C0.863196 7.96168 44.868 7 100.036 7C155.204 7 199.209 7.94969 199.209 15.8514L199.916 36.9185C199.916 36.9185 157.074 36.0432 100.036 36.6907C33.0335 37.4581 0.155762 36.6907 0.155762 36.6907Z" fill="url(#paint1_linear_144_1100)"/>
<defs>
<linearGradient id="paint0_linear_144_1100" x1="0" y1="20.9947" x2="200" y2="20.9947" gradientUnits="userSpaceOnUse">
<stop stop-color="#AC684C"/>
<stop offset="0.07" stop-color="#C7864C"/>
<stop offset="0.1" stop-color="#DF9F4C"/>
<stop offset="0.14" stop-color="#F1B14C"/>
<stop offset="0.18" stop-color="#FBBC4C"/>
<stop offset="0.22" stop-color="#FFC04C"/>
<stop offset="0.66" stop-color="#FFF14C"/>
<stop offset="0.84" stop-color="#FFC04C"/>
<stop offset="0.86" stop-color="#FABA4C"/>
<stop offset="0.88" stop-color="#ECAB4C"/>
<stop offset="0.9" stop-color="#D6924C"/>
<stop offset="0.91" stop-color="#C7804C"/>
<stop offset="0.93" stop-color="#C9844C"/>
<stop offset="0.95" stop-color="#CF914C"/>
<stop offset="0.96" stop-color="#DAA64C"/>
<stop offset="0.98" stop-color="#E9C44C"/>
<stop offset="1" stop-color="#FFF14C"/>
</linearGradient>
<linearGradient id="paint1_linear_144_1100" x1="0.155762" y1="19.2326" x2="199.916" y2="19.2326" gradientUnits="userSpaceOnUse">
<stop stop-color="#D38F11"/>
<stop offset="0.02" stop-color="#C68211"/>
<stop offset="0.06" stop-color="#A56011"/>
<stop offset="0.07" stop-color="#9A5511"/>
<stop offset="0.11" stop-color="#B36E11"/>
<stop offset="0.14" stop-color="#C48011"/>
<stop offset="0.18" stop-color="#CF8B11"/>
<stop offset="0.22" stop-color="#D38F11"/>
<stop offset="0.26" stop-color="#D99B1D"/>
<stop offset="0.32" stop-color="#EBBC3F"/>
<stop offset="0.37" stop-color="#FBDA5D"/>
<stop offset="0.53" stop-color="#ECA80E"/>
<stop offset="0.66" stop-color="#FFBF0B"/>
<stop offset="0.84" stop-color="#D38F11"/>
<stop offset="0.86" stop-color="#CE8911"/>
<stop offset="0.88" stop-color="#C07A12"/>
<stop offset="0.9" stop-color="#A96114"/>
<stop offset="0.91" stop-color="#994F16"/>
<stop offset="0.93" stop-color="#9C5315"/>
<stop offset="0.95" stop-color="#A86014"/>
<stop offset="0.96" stop-color="#BC7512"/>
<stop offset="0.98" stop-color="#D7930F"/>
<stop offset="1" stop-color="#FFBF0B"/>
</linearGradient>
</defs>
</svg>
