<svg width="281" height="271" viewBox="0 0 281 271" fill="none" xmlns="http://www.w3.org/2000/svg">
<path fill-rule="evenodd" clip-rule="evenodd" d="M74.6021 252.135C13.4491 216.893 -14.7754 140.844 20.964 71.2795C21.5049 67.9421 20.0271 66.482 16.5304 66.9086C11.8939 68.4067 7.26711 69.8952 2.63065 71.3933C0.631174 71.8579 -0.228487 71.0614 0.0516329 68.985C12.0485 40.9109 46.793 40.38 55.1579 30.3867C129.061 -25.4582 204.578 8.20043 231.179 32.3872C239.96 40.3705 235.806 46.6661 225.77 45.9076C163.641 41.1954 185.414 108.37 113.413 103.07C120.484 99.9605 132.867 90.0525 135.61 84.8567C66.2661 72.6353 25.6778 151.956 51.188 199.429C60.5092 205.146 70.2457 176.133 97.427 196.603C70.7577 197.988 76.3021 207.905 61.8325 213.357C66.4593 215.841 69.019 221.245 65.7735 229.067C62.7791 236.264 66.4883 241.668 74.6021 252.135Z" fill="url(#paint0_radial_67_56526)"/>
<path fill-rule="evenodd" clip-rule="evenodd" d="M100.692 245.1C131.003 255.833 152.533 232.376 151.654 214.864C151.123 204.236 131.727 196.461 128.636 217.035C125.71 236.491 117.161 244.711 100.692 245.1ZM280.046 140.806C280.191 101.193 265.074 54.0708 211.146 54.0708C190.108 54.0708 187.249 79.7462 213.049 80.7986C245.427 82.894 275.332 106.607 280.046 140.806ZM187.172 148.609C169.36 138.549 147.443 148.163 142.092 166.358C130.23 152.534 135.224 129.295 148.187 114.23C203.592 49.8232 313.409 114.656 262.195 202.709C229.788 258.421 150.447 294.962 74.5925 252.135C161.497 286.856 251.773 185.093 187.172 148.609ZM151.365 237.79C163.497 224.952 167.727 206.359 157.633 183.946C148.969 164.699 167.573 155.597 180.758 162.556C205.524 175.621 193.47 224.516 151.365 237.79Z" fill="url(#paint1_radial_67_56526)"/>
<path opacity="0.2" fill-rule="evenodd" clip-rule="evenodd" d="M56.2883 32.0934C107.772 2.54016 159.498 3.79169 198.077 14.3539C162.569 -1.25236 109.028 -7.65224 56.2883 32.0934Z" fill="white"/>
<path opacity="0.15" fill-rule="evenodd" clip-rule="evenodd" d="M251.84 196.964C226.514 240.492 172.363 272.245 113.732 263.153C174.237 278.361 231.681 246.702 257.587 202.169C276.539 169.591 272.318 140.36 256.979 120.393C267.971 140.616 268.985 167.477 251.84 196.964Z" fill="white"/>
<path opacity="0.2" fill-rule="evenodd" clip-rule="evenodd" d="M209.021 60.272C247.204 60.272 267.595 86.3171 274.907 113.083C270.29 85.0182 250.74 56.707 211.996 56.707C205.515 56.707 200.965 59.4471 198.744 63.0595C201.342 61.3529 204.8 60.272 209.021 60.272Z" fill="white"/>
<defs>
<radialGradient id="paint0_radial_67_56526" cx="0" cy="0" r="1" gradientUnits="userSpaceOnUse" gradientTransform="translate(117.987 15.1216) scale(122.665 120.405)">
<stop stop-color="#640BBF"/>
<stop offset="1" stop-color="#2F1173"/>
</radialGradient>
<radialGradient id="paint1_radial_67_56526" cx="0" cy="0" r="1" gradientUnits="userSpaceOnUse" gradientTransform="translate(198.498 54.0433) rotate(120.032) scale(235.459 237.686)">
<stop stop-color="#2F1173"/>
<stop offset="1" stop-color="#640BBF"/>
<stop offset="1" stop-color="#640BBF"/>
</radialGradient>
</defs>
</svg>
