<svg width="44" height="44" viewBox="0 0 44 44" fill="none" xmlns="http://www.w3.org/2000/svg">
<path fill-rule="evenodd" clip-rule="evenodd" d="M11.7212 40.9552C2.11307 35.2307 -2.32146 22.8777 3.29379 11.5782C3.37878 11.0361 3.14658 10.7989 2.5972 10.8682C1.86873 11.1115 1.14178 11.3533 0.413319 11.5966C0.099168 11.6721 -0.0358991 11.5427 0.00811239 11.2055C1.89302 6.64529 7.35195 6.55905 8.66622 4.93581C20.2777 -4.13526 32.1425 1.33202 36.3221 5.26076C37.7016 6.55751 37.0491 7.58012 35.4722 7.45692C25.7108 6.6915 29.1315 17.603 17.8191 16.742C18.93 16.2369 20.8756 14.6275 21.3066 13.7836C10.4115 11.7984 4.0344 24.6827 8.04248 32.3939C9.507 33.3225 11.0368 28.6099 15.3074 31.9349C11.1172 32.1598 11.9883 33.7707 9.71491 34.6562C10.4419 35.0597 10.844 35.9376 10.3341 37.2082C9.86364 38.3771 10.4464 39.2549 11.7212 40.9552Z" fill="url(#paint0_diamond_101_3847)"/>
<path fill-rule="evenodd" clip-rule="evenodd" d="M11.7212 40.9552C2.11307 35.2307 -2.32146 22.8777 3.29379 11.5782C3.37878 11.0361 3.14658 10.7989 2.5972 10.8682C1.86873 11.1115 1.14178 11.3533 0.413319 11.5966C0.099168 11.6721 -0.0358991 11.5427 0.00811239 11.2055C1.89302 6.64529 7.35195 6.55905 8.66622 4.93581C20.2777 -4.13526 32.1425 1.33202 36.3221 5.26076C37.7016 6.55751 37.0491 7.58012 35.4722 7.45692C25.7108 6.6915 29.1315 17.603 17.8191 16.742C18.93 16.2369 20.8756 14.6275 21.3066 13.7836C10.4115 11.7984 4.0344 24.6827 8.04248 32.3939C9.507 33.3225 11.0368 28.6099 15.3074 31.9349C11.1172 32.1598 11.9883 33.7707 9.71491 34.6562C10.4419 35.0597 10.844 35.9376 10.3341 37.2082C9.86364 38.3771 10.4464 39.2549 11.7212 40.9552Z" fill="url(#paint1_linear_101_3847)" fill-opacity="0.4"/>
<path fill-rule="evenodd" clip-rule="evenodd" d="M43.9998 22.8716C44.0226 16.4371 41.6475 8.78293 33.1745 8.78293C29.8691 8.78293 29.4199 12.9535 33.4735 13.1244C38.5606 13.4648 43.2592 17.3165 43.9998 22.8716ZM29.4078 24.1391C26.6093 22.505 23.1657 24.0667 22.325 27.0221C20.4613 24.7766 21.2459 21.0019 23.2826 18.5547C31.9878 8.09297 49.2418 18.624 41.1953 32.9267C36.1036 41.9762 23.6377 47.9117 11.7197 40.9552C25.3739 46.5949 39.5577 30.0653 29.4078 24.1391Z" fill="url(#paint2_diamond_101_3847)"/>
<path fill-rule="evenodd" clip-rule="evenodd" d="M43.9998 22.8716C44.0226 16.4371 41.6475 8.78293 33.1745 8.78293C29.8691 8.78293 29.4199 12.9535 33.4735 13.1244C38.5606 13.4648 43.2592 17.3165 43.9998 22.8716ZM29.4078 24.1391C26.6093 22.505 23.1657 24.0667 22.325 27.0221C20.4613 24.7766 21.2459 21.0019 23.2826 18.5547C31.9878 8.09297 49.2418 18.624 41.1953 32.9267C36.1036 41.9762 23.6377 47.9117 11.7197 40.9552C25.3739 46.5949 39.5577 30.0653 29.4078 24.1391Z" fill="url(#paint3_linear_101_3847)" fill-opacity="0.6"/>
<path opacity="0.2" fill-rule="evenodd" clip-rule="evenodd" d="M8.84387 5.21306C16.9329 0.412634 25.0598 0.615924 31.1212 2.33157C25.5424 -0.203398 17.1302 -1.24295 8.84387 5.21306Z" fill="#F0F0F0"/>
<path opacity="0.15" fill-rule="evenodd" clip-rule="evenodd" d="M39.5682 31.9935C35.5889 39.064 27.0811 44.2217 17.869 42.7448C27.3755 45.2151 36.4009 40.0728 40.4712 32.839C43.4488 27.5473 42.7856 22.7992 40.3756 19.5558C42.1026 22.8408 42.262 27.2038 39.5682 31.9935Z" fill="#F0F0F0"/>
<path opacity="0.2" fill-rule="evenodd" clip-rule="evenodd" d="M32.8408 9.79016C38.8401 9.79016 42.0438 14.0208 43.1926 18.3684C42.4672 13.8098 39.3955 9.21109 33.3083 9.21109C32.2899 9.21109 31.5751 9.65617 31.2261 10.2429C31.6343 9.96573 32.1776 9.79016 32.8408 9.79016Z" fill="#F0F0F0"/>
<defs>
<radialGradient id="paint0_diamond_101_3847" cx="0" cy="0" r="1" gradientUnits="userSpaceOnUse" gradientTransform="translate(25.9616 4.0759) rotate(118.222) scale(39.756 36.5089)">
<stop stop-color="#640BBF"/>
<stop offset="1" stop-color="#2F1073"/>
</radialGradient>
<linearGradient id="paint1_linear_101_3847" x1="29.214" y1="-3.37202" x2="-1.24134" y2="40.1033" gradientUnits="userSpaceOnUse">
<stop stop-color="#F7F7F7"/>
<stop offset="1" stop-color="#F0F0F0"/>
</linearGradient>
<radialGradient id="paint2_diamond_101_3847" cx="0" cy="0" r="1" gradientUnits="userSpaceOnUse" gradientTransform="translate(40.1611 19.9539) rotate(111.322) scale(19.4168 17.9494)">
<stop stop-color="#F050F2"/>
<stop offset="1" stop-color="#650BBF"/>
</radialGradient>
<linearGradient id="paint3_linear_101_3847" x1="40.9544" y1="8.74107" x2="17.6624" y2="49.5379" gradientUnits="userSpaceOnUse">
<stop stop-color="#F0F0F0"/>
<stop offset="1" stop-color="#F7F7F7"/>
</linearGradient>
</defs>
</svg>
