<svg width="current" height="current" viewBox="0 0 24 24" fill="none" xmlns="http://www.w3.org/2000/svg">
<path d="M12 3C16.9706 3 21 7.02944 21 12C21 16.9706 16.9706 21 12 21C7.02944 21 3 16.9706 3 12" stroke="current" stroke-width="1.5" stroke-linecap="round" stroke-linejoin="round"/>
<path d="M15.5 12H11.5V7" stroke="current" stroke-width="1.5" stroke-linecap="round" stroke-linejoin="round"/>
<path d="M4.13668 7.51133L4.13711 7.51089C4.2346 7.41137 4.3943 7.40968 4.49388 7.50712C4.59346 7.60455 4.59525 7.76425 4.49787 7.86389C4.4005 7.96353 4.2408 7.96541 4.1411 7.8681C4.0414 7.77078 4.03942 7.61109 4.13668 7.51133" stroke="current" stroke-width="1.5" stroke-linecap="round" stroke-linejoin="round"/>
<path d="M7.73999 4.61515L7.73955 4.61558C7.64206 4.71063 7.48598 4.70869 7.39087 4.61125C7.29577 4.51381 7.29761 4.35773 7.39499 4.26256C7.49237 4.1674 7.64845 4.16914 7.74368 4.26646C7.8389 4.36378 7.83726 4.51986 7.73999 4.61515" stroke="current" stroke-width="1.5" stroke-linecap="round" stroke-linejoin="round"/>
</svg>
