<svg width="24" height="25" viewBox="0 0 24 25" fill="none" xmlns="http://www.w3.org/2000/svg">
<path d="M14.122 10.38C15.293 11.551 15.293 13.452 14.122 14.625C12.951 15.796 11.05 15.796 9.87703 14.625C8.70603 13.454 8.70603 11.553 9.87703 10.38C11.05 9.207 12.95 9.207 14.122 10.38" stroke="#F050F2" stroke-width="1.5" stroke-linecap="round" stroke-linejoin="round"/>
<path fill-rule="evenodd" clip-rule="evenodd" d="M3 12.5C3 11.841 3.152 11.189 3.446 10.588V10.588C4.961 7.491 8.309 5.5 12 5.5C15.691 5.5 19.039 7.491 20.554 10.588V10.588C20.848 11.189 21 11.841 21 12.5C21 13.159 20.848 13.811 20.554 14.412V14.412C19.039 17.509 15.691 19.5 12 19.5C8.309 19.5 4.961 17.509 3.446 14.412V14.412C3.152 13.811 3 13.159 3 12.5Z" stroke="#F050F2" stroke-width="1.5" stroke-linecap="round" stroke-linejoin="round"/>
</svg>
