<svg width="18" height="19" viewBox="0 0 18 19" fill="none" xmlns="http://www.w3.org/2000/svg">
<path d="M13.5 4.25H15.75" stroke="#F7F7F7" stroke-width="1.5" stroke-linecap="round" stroke-linejoin="round"/>
<path d="M2.25 4.25H10.5" stroke="#F7F7F7" stroke-width="1.5" stroke-linecap="round" stroke-linejoin="round"/>
<path d="M7.5 9.5H15.75" stroke="#F7F7F7" stroke-width="1.5" stroke-linecap="round" stroke-linejoin="round"/>
<path d="M2.25 9.5H4.5" stroke="#F7F7F7" stroke-width="1.5" stroke-linecap="round" stroke-linejoin="round"/>
<path d="M13.5 14.75H15.75" stroke="#F7F7F7" stroke-width="1.5" stroke-linecap="round" stroke-linejoin="round"/>
<path d="M2.25 14.75H10.5" stroke="#F7F7F7" stroke-width="1.5" stroke-linecap="round" stroke-linejoin="round"/>
<path d="M13.0607 3.18934C13.6464 3.77513 13.6464 4.72488 13.0607 5.31066C12.4749 5.89645 11.5251 5.89645 10.9393 5.31066C10.3536 4.72488 10.3536 3.77513 10.9393 3.18934C11.5251 2.60355 12.4749 2.60355 13.0607 3.18934" stroke="#F7F7F7" stroke-width="1.5" stroke-linecap="round" stroke-linejoin="round"/>
<path d="M7.06066 8.43935C7.64645 9.02513 7.64645 9.97488 7.06066 10.5607C6.47488 11.1465 5.52513 11.1465 4.93934 10.5607C4.35355 9.97488 4.35355 9.02514 4.93934 8.43935C5.52513 7.85356 6.47488 7.85356 7.06066 8.43935" stroke="#F7F7F7" stroke-width="1.5" stroke-linecap="round" stroke-linejoin="round"/>
<path d="M13.0607 13.6893C13.6464 14.2751 13.6464 15.2249 13.0607 15.8107C12.4749 16.3965 11.5251 16.3965 10.9393 15.8107C10.3536 15.2249 10.3536 14.2751 10.9393 13.6893C11.5251 13.1036 12.4749 13.1036 13.0607 13.6893" stroke="#F7F7F7" stroke-width="1.5" stroke-linecap="round" stroke-linejoin="round"/>
</svg>
