<svg width="current" height="current" viewBox="0 0 70 70" fill="none" xmlns="http://www.w3.org/2000/svg">
<path d="M24.7915 46.6667C24.7915 46.6667 28.6211 42.84 34.9998 42.84C41.3815 42.84 45.2082 46.6667 45.2082 46.6667" stroke="current" stroke-width="1.5" stroke-linecap="round" stroke-linejoin="round"/>
<path d="M53.5615 16.4384C63.8128 26.6897 63.8128 43.3103 53.5615 53.5615C43.3102 63.8128 26.6897 63.8128 16.4384 53.5615C6.18718 43.3102 6.18718 26.6897 16.4384 16.4384C26.6897 6.18718 43.3103 6.18718 53.5615 16.4384" stroke="current" stroke-width="1.5" stroke-linecap="round" stroke-linejoin="round"/>
<path d="M20.4165 29.1667C21.5686 27.7521 23.1436 26.95 24.7915 26.95C26.4394 26.95 27.9707 27.7521 29.1665 29.1667" stroke="current" stroke-width="1.5" stroke-linecap="round" stroke-linejoin="round"/>
<path d="M40.8335 29.1667C41.9856 27.7521 43.5606 26.95 45.2085 26.95C46.8564 26.95 48.3877 27.7521 49.5835 29.1667" stroke="current" stroke-width="1.5" stroke-linecap="round" stroke-linejoin="round"/>
</svg>
