<svg width="25" height="24" viewBox="0 0 25 24" fill="none" xmlns="http://www.w3.org/2000/svg">
<g id="Group">
<g id="Group 1">
<rect id="Rectangle" x="2.5" y="2.99988" width="20" height="18" rx="3" stroke="current" stroke-width="1.5" stroke-linecap="round" stroke-linejoin="round"/>
<path id="Path" d="M9.02271 14.5587C9.90438 15.5924 11.1703 16.1841 12.5 16.1841C13.8297 16.1841 15.0957 15.5924 15.9774 14.5587" stroke="#F7F7F7" stroke-width="1.5" stroke-linecap="round" stroke-linejoin="round"/>
<path id="Path_2" d="M15.6294 10.0504C15.5854 10.0504 15.5431 10.0686 15.5121 10.1011C15.481 10.1336 15.4638 10.1777 15.4641 10.2234C15.4641 10.2936 15.5049 10.3568 15.5673 10.3835C15.6298 10.4102 15.7015 10.3951 15.7491 10.3453C15.7967 10.2955 15.8106 10.2209 15.7844 10.1562C15.7582 10.0916 15.697 10.0498 15.6294 10.0504" stroke="#F7F7F7" stroke-width="1.5" stroke-linecap="round" stroke-linejoin="round"/>
<path id="Path_3" d="M9.3693 10.0504C9.27726 10.0504 9.20264 10.1278 9.20264 10.2234C9.20264 10.319 9.27726 10.3965 9.3693 10.3965C9.46135 10.3965 9.53597 10.319 9.53597 10.2234C9.53597 10.1278 9.46135 10.0504 9.3693 10.0504" stroke="#F7F7F7" stroke-width="1.5" stroke-linecap="round" stroke-linejoin="round"/>
</g>
</g>
</svg>
