<svg width="current" height="current" viewBox="0 0 74 74" fill="none" xmlns="http://www.w3.org/2000/svg">
<path fill-rule="evenodd" clip-rule="evenodd" d="M42.7727 51.1085L19.4023 62.7937C17.0504 63.9696 14.2099 63.5087 12.3505 61.6493V61.6493C10.4912 59.79 10.0302 56.9495 11.2061 54.5975L22.8913 31.2272C23.3345 30.3406 24.1769 29.7212 25.1553 29.5624C26.1337 29.4036 27.1288 29.7249 27.8296 30.4258L43.5741 46.1703C44.275 46.8711 44.5962 47.8662 44.4374 48.8445C44.2787 49.8229 43.6592 50.6653 42.7727 51.1085Z" stroke="current" stroke-width="1.5" stroke-linecap="round" stroke-linejoin="round"/>
<path d="M15.4167 9.25001V10.7917" stroke="current" stroke-width="1.5" stroke-linecap="round" stroke-linejoin="round"/>
<path d="M15.4167 21.5833V20.0417" stroke="current" stroke-width="1.5" stroke-linecap="round" stroke-linejoin="round"/>
<path d="M21.5835 15.4167H20.0418" stroke="current" stroke-width="1.5" stroke-linecap="round" stroke-linejoin="round"/>
<path d="M9.24984 15.4167H10.7915" stroke="current" stroke-width="1.5" stroke-linecap="round" stroke-linejoin="round"/>
<path d="M37 9.25C38.5614 10.0308 39.7124 11.4444 40.1605 13.1317C40.6086 14.8189 40.3106 16.6174 39.3423 18.0699L37 21.5833" stroke="current" stroke-width="1.5" stroke-linecap="round" stroke-linejoin="round"/>
<path d="M52.4165 37L55.9299 34.6577C57.3825 33.6894 59.1809 33.3914 60.8682 33.8395C62.5554 34.2876 63.9691 35.4386 64.7498 37" stroke="current" stroke-width="1.5" stroke-linecap="round" stroke-linejoin="round"/>
<path d="M58.5832 52.4167V53.9583" stroke="current" stroke-width="1.5" stroke-linecap="round" stroke-linejoin="round"/>
<path d="M58.5832 64.75V63.2083" stroke="current" stroke-width="1.5" stroke-linecap="round" stroke-linejoin="round"/>
<path d="M64.75 58.5833H63.2083" stroke="current" stroke-width="1.5" stroke-linecap="round" stroke-linejoin="round"/>
<path d="M52.4168 58.5833H53.9585" stroke="current" stroke-width="1.5" stroke-linecap="round" stroke-linejoin="round"/>
<path d="M58.5832 9.25001V10.7917" stroke="current" stroke-width="1.5" stroke-linecap="round" stroke-linejoin="round"/>
<path d="M58.5832 21.5833V20.0417" stroke="current" stroke-width="1.5" stroke-linecap="round" stroke-linejoin="round"/>
<path d="M64.75 15.4167H63.2083" stroke="current" stroke-width="1.5" stroke-linecap="round" stroke-linejoin="round"/>
<path d="M52.4168 15.4167H53.9585" stroke="current" stroke-width="1.5" stroke-linecap="round" stroke-linejoin="round"/>
<path d="M43.1665 30.8333L46.2498 27.75" stroke="current" stroke-width="1.5" stroke-linecap="round" stroke-linejoin="round"/>
</svg>
